<svg xmlns="http://www.w3.org/2000/svg" viewBox="0 0 532.99 227.67">
  <path d="M658.6,167.05a84.6,84.6,0,0,1,21.32,2.64,79.14,79.14,0,0,1,36.28,21.24c15.84,15.83,23.87,35.21,23.87,57.6s-8,41.78-23.87,57.62S681,330,658.6,330c-1.39,0-2.79,0-4.15-.09l-1.51-.06,1.25-.85a99.21,99.21,0,0,0,11.53-9.19l.12-.12H666c16.47-1.55,31-8.48,43.07-20.61a71.45,71.45,0,0,0,0-101c-13-13-28.62-20-46.57-20.82h-.17l-.13-.11a94.49,94.49,0,0,0-12.15-8.75l-1.3-.78,1.51-.14c2.74-.26,5.54-.39,8.33-.39m0-3c-2.88,0-5.78.14-8.61.4l-10.61,1,9.13,5.5a90.38,90.38,0,0,1,11.76,8.47l.91.77,1.19.06c17.18.82,32.18,7.53,44.59,19.94A68.46,68.46,0,0,1,707,297c-11.6,11.62-25.48,18.26-41.23,19.74l-1.18.11-.87.8a94.17,94.17,0,0,1-11.18,8.92l-8.74,5.92,10.55.47c1.41.06,2.85.09,4.29.09,23.21,0,43.3-8.32,59.72-24.74s24.75-36.52,24.75-59.74-8.33-43.31-24.75-59.72a82,82,0,0,0-37.64-22,87.36,87.36,0,0,0-22.08-2.74Z" transform="translate(-240.8 -134.82)" style="fill: #deaa75"/>
  <path d="M602.48,333.77a84.12,84.12,0,0,1-33.32-6.57,79.28,79.28,0,0,1-11.2-5.91A89.82,89.82,0,0,1,542.74,309C526.32,292.6,518,272.5,518,249.3a83.88,83.88,0,0,1,24.54-59.52,89.45,89.45,0,0,1,15-12.2,79,79,0,0,1,11.28-6,83.85,83.85,0,0,1,33.68-6.74c20.77,0,39.08,6.68,54.43,19.85a7.5,7.5,0,0,1-3.57,13.09l-1,.18a7.34,7.34,0,0,1-1.68.19,7.57,7.57,0,0,1-4.87-1.78c-12.23-10.25-26.81-15.45-43.33-15.45A70.34,70.34,0,0,0,582,183.82a63.87,63.87,0,0,0-10.23,4.1,70.78,70.78,0,0,0-18.42,13.76,68.92,68.92,0,0,0-19.28,49.25,66.24,66.24,0,0,0,20,46.79,69.77,69.77,0,0,0,18,13.17,61.25,61.25,0,0,0,10.13,4,69.89,69.89,0,0,0,20.27,2.87c16.79,0,31.58-5.38,43.95-16a7.6,7.6,0,0,1,4.94-1.84,7.4,7.4,0,0,1,2.1.3l1.13.33a7.5,7.5,0,0,1,2.75,12.91,83.91,83.91,0,0,1-51.21,20.2C604.92,333.75,603.68,333.77,602.48,333.77Z" transform="translate(-240.8 -134.82)" style="fill: #251f1d"/>
  <path d="M392.24,354.76l312,.23c33.16,0,62-29.84,62-63V205.34a63.19,63.19,0,0,0-63-63H456.76" transform="translate(-240.8 -134.82)" style="fill: none;stroke: #251f1d;stroke-miterlimit: 10;stroke-width: 15px"/>
  <path d="M354.29,199.25l-.17,159a4,4,0,0,0,4,4H377l15.94,0-.32-15-11.61,0a4,4,0,0,1-4-4l0-168a9.83,9.83,0,0,0-7.36-10.45c-3.76-.79-74.95-10.78-113.08,79.36-13,30.74-15.32,72.07-15.73,85.11a4,4,0,0,0,4,4.12h7.08a4,4,0,0,0,4-4c0-11.41.92-45.22,11.47-73.69,22-59.3,69.47-61.16,83.18-60.4A4,4,0,0,1,354.29,199.25Z" transform="translate(-240.8 -134.82)" style="fill: #251f1d"/>
  <path d="M420.28,168.33a4,4,0,0,1,4-4l70.64,0a10.26,10.26,0,0,1,7.95,4.95c3.42,6-1.31,11-1.31,11l-58.95,65.58a4,4,0,0,0,.17,5.52l75.91,74.86a4,4,0,0,1-2.8,6.85l-19.19.08a8,8,0,0,1-5.65-2.31l-74.62-73.71a4,4,0,0,1-.16-5.53l52.34-58a4,4,0,0,0-3-6.68l-41.3.05a4,4,0,0,1-4-4Z" transform="translate(-240.8 -134.82)" style="fill: #251f1d"/>
  <path d="M456.76,136.82v11.06H410.29a6,6,0,0,0-6,6v175.3a2,2,0,0,1-2,2h-7.17a2,2,0,0,1-2-2V138.82a2,2,0,0,1,2-2h61.64m2-2H395.12a4,4,0,0,0-4,4V329.18a4,4,0,0,0,4,4h7.17a4,4,0,0,0,4-4V153.88a4,4,0,0,1,4-4h48.47V134.82Z" transform="translate(-240.8 -134.82)" style="fill: #deaa75"/>
  <path d="M603.21,189.38c2.09,0,4.2.1,6.28.3l1.31.12-1.06.77a77.43,77.43,0,0,0-8.64,7.48,71.47,71.47,0,0,0,0,101,76.05,76.05,0,0,0,10.43,8.77l1.07.74-1.29.17a63.94,63.94,0,0,1-8.1.5c-2,0-3.8-.07-5.52-.23h-.09l-.46,0-.2,0-.16-.13c-.9-.82-1.84-1.72-2.8-2.67-15.83-15.85-23.86-35.23-23.86-57.62s8-41.76,23.86-57.6c.32-.31.63-.63.95-.93l.12-.11.16,0,1.76-.2c1.95-.19,4-.29,6.24-.29m0-3c-2.29,0-4.5.11-6.53.31-.61.05-1.24.12-1.84.2l-1.13.14-.83.78c-.35.33-.68.66-1,1-16.42,16.42-24.74,36.51-24.74,59.72s8.32,43.31,24.74,59.74c1,1,2,1.93,2.94,2.8l.88.76,1.13.13.6.05c1.82.17,3.72.25,5.8.25a66.26,66.26,0,0,0,8.49-.53l9-1.17-7.47-5.17a73.58,73.58,0,0,1-10-8.43,68.48,68.48,0,0,1,0-96.79,74.11,74.11,0,0,1,8.3-7.18l7.39-5.45-9.14-.85c-2.17-.2-4.38-.31-6.56-.31Z" transform="translate(-240.8 -134.82)" style="fill: #deaa75"/>
</svg>
