<svg xmlns="http://www.w3.org/2000/svg" viewBox="0 0 532.99118 227.66867">
  <path d="M658.59725,167.05314a84.7,84.7,0,0,1,21.32764,2.63648A79.1809,79.1809,0,0,1,716.20211,190.931c15.83557,15.82564,23.86487,35.20581,23.86487,57.60214,0,22.39261-8.02978,41.77644-23.86645,57.613-15.83692,15.83691-35.21741,23.86691-57.60328,23.86691-1.38757,0-2.78454-.03055-4.15173-.09082l-1.5072-.06663,1.24817-.84658a98.54613,98.54613,0,0,0,11.53161-9.19333l.12427-.11489.16821-.01574c16.46839-1.541,30.96021-8.47351,43.07361-20.60569a71.46971,71.46971,0,0,0-.00049-101.03289c-12.95214-12.95117-28.621-19.95406-46.57067-20.81412l-.1695-.00816-.12994-.11a93.91572,93.91572,0,0,0-12.1546-8.75306l-1.30335-.78557,1.51593-.14029c2.73645-.25361,5.5376-.3822,8.32568-.3822m0-3c-2.8789,0-5.77343.1328-8.60253.395l-10.61036.982,9.126,5.5005a90.90911,90.90911,0,0,1,11.76465,8.47314l.90723.76805,1.18652.05714c17.18164.82325,32.18555,7.53172,44.59375,19.939a68.46971,68.46971,0,0,1-.00195,96.79247C695.356,308.58292,681.485,315.224,665.731,316.69814l-1.17968.11037-.87012.80469a95.53414,95.53414,0,0,1-11.17871,8.91308l-8.73828,5.92676,10.54882.46629c1.40723.062,2.84864.09375,4.28418.09375,23.21,0,43.30469-8.32565,59.72461-24.7456S743.067,271.75039,743.067,248.53312c0-23.2207-8.32519-43.31542-24.74414-59.72411a82.13749,82.13749,0,0,0-37.6416-22.02248,87.70336,87.70336,0,0,0-22.084-2.73338Z" transform="translate(-240.80293 -134.82353)" style="fill: #deaa75"/>
  <path d="M602.47811,333.77286a84.10272,84.10272,0,0,1-33.31933-6.57275,78.4013,78.4013,0,0,1-11.20117-5.91455,89.26832,89.26832,0,0,1-15.21289-12.25488c-16.4209-16.43213-24.7461-36.52735-24.74756-59.73145a83.89031,83.89031,0,0,1,24.53857-59.52393,89.52453,89.52453,0,0,1,14.98779-12.1958,78.20054,78.20054,0,0,1,11.27344-6.02832,83.86284,83.86284,0,0,1,33.68018-6.73828c20.77246,0,39.08691,6.67822,54.43652,19.84863a7.508,7.508,0,0,1-3.57129,13.09229l-.98047.17334a7.28485,7.28485,0,0,1-1.68652.19775,7.59035,7.59035,0,0,1-4.86133-1.78906C633.5787,186.08878,618.99764,180.893,602.47714,180.893a70.30087,70.30087,0,0,0-20.47168,2.92871,63.03339,63.03339,0,0,0-10.2251,4.103,70.55621,70.55621,0,0,0-18.41846,13.75244A68.90906,68.90906,0,0,0,534.08358,250.935a66.20478,66.20478,0,0,0,20.021,46.78565,69.71856,69.71856,0,0,0,17.97314,13.17431,61.83562,61.83562,0,0,0,10.13672,4.023,69.84681,69.84681,0,0,0,20.2627,2.875c16.79687,0,31.58593-5.37842,43.95508-15.98535a7.60328,7.60328,0,0,1,4.9414-1.84131,7.418,7.418,0,0,1,2.10059.30274l1.12988.33252a7.50822,7.50822,0,0,1,2.74512,12.91211,83.88735,83.88735,0,0,1-51.2085,20.19189C604.91659,333.7504,603.68417,333.77286,602.47811,333.77286Z" transform="translate(-240.80293 -134.82353)" style="fill: #fff"/>
  <path d="M392.23529,354.76471l312.00693.22747c33.15734.02868,62.0519-29.84263,62.0519-63V205.33762a63.18521,63.18521,0,0,0-63-63H456.76471" transform="translate(-240.80293 -134.82353)" style="fill: none;stroke: #fff;stroke-miterlimit: 10;stroke-width: 15px"/>
  <path d="M354.29232,199.2524l-.17241,159.03721A4,4,0,0,0,358.118,362.294l18.879.009,15.94047-.01986-.31674-15.01389-11.61567-.01429a4,4,0,0,1-3.99508-3.999l-.04294-168.043a9.823,9.823,0,0,0-7.36-10.45c-3.7597-.79448-74.94806-10.78207-113.0777,79.35474-13.00416,30.74125-15.315,72.06823-15.72444,85.11276a3.99481,3.99481,0,0,0,4.00373,4.11715l7.08111-.00931a3.99337,3.99337,0,0,0,3.99448-3.99447c-.01222-11.41523.91929-45.22064,11.46867-73.69673,21.96576-59.29246,69.47015-61.15957,83.1734-60.39416A3.99238,3.99238,0,0,1,354.29232,199.2524Z" transform="translate(-240.80293 -134.82353)" style="fill: #fff"/>
  <path d="M420.28175,168.32962a4,4,0,0,1,4.00153-4.01525l70.63216.02754a10.2666,10.2666,0,0,1,7.95221,4.95221c3.42647,5.94117-1.30883,11-1.30883,11l-58.94668,65.57149a4,4,0,0,0,.16593,5.52211l75.90716,74.863a4,4,0,0,1-2.79232,6.84792l-19.19161.0789a8,8,0,0,1-5.655-2.30852L416.426,257.1576a4,4,0,0,1-.15853-5.52556l52.34562-58.00461a4,4,0,0,0-2.97242-6.67985l-41.29837.0478a4,4,0,0,1-4.0046-3.98474Z" transform="translate(-240.80293 -134.82353)" style="fill: #fff"/>
  <path d="M456.76473,136.82353v11.05883H410.29409a6.0068,6.0068,0,0,0-6,6V329.17647a2.00228,2.00228,0,0,1-2,2h-7.17645a2.00228,2.00228,0,0,1-2-2V138.82353a2.00229,2.00229,0,0,1,2-2h61.64709m2-2H395.11764a4,4,0,0,0-4,4V329.17647a4,4,0,0,0,4,4h7.17645a4,4,0,0,0,4-4V153.88236a4,4,0,0,1,4-4h48.47064V134.82353Z" transform="translate(-240.80293 -134.82353)" style="fill: #deaa75"/>
  <path d="M603.20712,189.38273c2.0896,0,4.2044.09832,6.28589.29227l1.30627.1216-1.05511.77831a76.57018,76.57018,0,0,0-8.64319,7.47162,71.46735,71.46735,0,0,0,.00238,101.03563,76.11972,76.11972,0,0,0,10.4281,8.76976l1.068.73923-1.28784.16774a63.087,63.087,0,0,1-8.10449.50421c-1.987,0-3.79273-.07762-5.52033-.23728l-.04107-.0038-.0412-.00265c-.15827-.01026-.31073-.02693-.46466-.04389l-.19983-.02233-.15546-.1341c-.90375-.81866-1.84625-1.71777-2.80066-2.67171-15.837-15.84741-23.86712-35.23163-23.86712-57.61422,0-22.386,8.02984-41.76671,23.865-57.60234.31481-.31437.62933-.62855.95306-.93271l.11871-.11141.16034-.02c.5658-.07032,1.1518-.14116,1.75983-.1947,1.94623-.19191,4.04346-.28923,6.2334-.28923m0-3c-2.28467,0-4.49268.103-6.52783.3037-.61182.05371-1.23438.12844-1.83545.20314l-1.13135.14111-.83106.78028c-.34668.32568-.6831.66111-1.01953.99707-16.41943,16.4199-24.74511,36.51416-24.74511,59.72509,0,23.207,8.32519,43.3042,24.74511,59.73486.99414.99365,1.98145,1.93555,2.936,2.79932l.88574.76416,1.12305.12547c.2041.02248.40039.043.604.05617,1.82275.16845,3.71973.25,5.79639.25a66.08856,66.08856,0,0,0,8.4917-.5293l9.01562-1.17432-7.47558-5.17431a73.126,73.126,0,0,1-10.01416-8.42433,68.46734,68.46734,0,0,1-.00245-96.793,73.57031,73.57031,0,0,1,8.30274-7.17873l7.38867-5.45018-9.14258-.85107c-2.1748-.20263-4.38281-.30518-6.564-.30518Z" transform="translate(-240.80293 -134.82353)" style="fill: #deaa75"/>
</svg>
